<?xml version="1.0" encoding="utf-8"?>
<!-- Generator: Adobe Illustrator 16.0.0, SVG Export Plug-In . SVG Version: 6.00 Build 0)  -->
<!DOCTYPE svg PUBLIC "-//W3C//DTD SVG 1.1//EN" "http://www.w3.org/Graphics/SVG/1.1/DTD/svg11.dtd">
<svg version="1.1" id="Layer_1" xmlns="http://www.w3.org/2000/svg" xmlns:xlink="http://www.w3.org/1999/xlink" x="0px" y="0px"
	 width="1224px" height="792px" viewBox="0 0 1224 792" enable-background="new 0 0 1224 792" xml:space="preserve">
<g>
	<path fill="#61DAFB" d="M938.353,396.066c0-43.238-54.148-84.216-137.166-109.627c19.157-84.614,10.643-151.934-26.875-173.486
		c-8.647-5.056-18.759-7.451-29.802-7.451v29.669c6.12,0,11.043,1.197,15.167,3.459c18.094,10.377,25.943,49.891,19.823,100.713
		c-1.463,12.506-3.858,25.677-6.785,39.114c-26.076-6.386-54.547-11.309-84.481-14.501c-17.961-24.613-36.587-46.964-55.346-66.521
		c43.372-40.312,84.083-62.396,111.756-62.396v-29.669c-36.587,0-84.482,26.076-132.909,71.311
		c-48.428-44.968-96.322-70.778-132.909-70.778v29.669c27.54,0,68.384,21.951,111.755,61.997
		c-18.626,19.558-37.252,41.775-54.946,66.389c-30.067,3.192-58.538,8.115-84.614,14.634c-3.061-13.304-5.322-26.209-6.919-38.582
		c-6.253-50.822,1.464-90.335,19.425-100.846c3.991-2.395,9.18-3.459,15.3-3.459v-29.669c-11.176,0-21.287,2.396-30.067,7.451
		c-37.385,21.553-45.767,88.738-26.476,173.088c-82.753,25.544-136.635,66.388-136.635,109.493
		c0,43.239,54.148,84.216,137.167,109.627c-19.158,84.615-10.644,151.935,26.874,173.487c8.648,5.056,18.759,7.45,29.935,7.45
		c36.587,0,84.482-26.076,132.909-71.311c48.428,44.968,96.322,70.778,132.909,70.778c11.176,0,21.287-2.395,30.067-7.45
		c37.385-21.553,45.767-88.739,26.476-173.088C884.471,480.149,938.353,439.172,938.353,396.066L938.353,396.066z M765.132,307.327
		c-4.923,17.163-11.043,34.857-17.961,52.552c-5.455-10.644-11.176-21.286-17.429-31.93c-6.12-10.644-12.639-21.021-19.158-31.132
		C729.477,299.611,747.703,303.07,765.132,307.327z M704.198,449.018c-10.377,17.961-21.021,34.99-32.063,50.822
		c-19.823,1.729-39.912,2.66-60.135,2.66c-20.089,0-40.179-0.931-59.869-2.527c-11.042-15.832-21.818-32.729-32.196-50.556
		c-10.111-17.429-19.291-35.123-27.673-52.951c8.249-17.827,17.563-35.655,27.54-53.084c10.377-17.961,21.021-34.99,32.063-50.822
		c19.823-1.729,39.912-2.661,60.135-2.661c20.09,0,40.179,0.932,59.869,2.528c11.042,15.832,21.818,32.729,32.196,50.557
		c10.111,17.428,19.291,35.123,27.673,52.95C723.356,413.762,714.177,431.589,704.198,449.018L704.198,449.018z M747.171,431.722
		c7.185,17.828,13.305,35.655,18.359,52.951c-17.428,4.257-35.788,7.85-54.813,10.644c6.519-10.244,13.038-20.755,19.157-31.531
		C735.995,453.142,741.716,442.365,747.171,431.722L747.171,431.722z M612.267,573.678c-12.373-12.771-24.746-27.007-36.986-42.573
		c11.974,0.532,24.214,0.932,36.587,0.932c12.506,0,24.879-0.267,36.985-0.932C636.879,546.671,624.506,560.906,612.267,573.678z
		 M513.283,495.316c-18.893-2.794-37.119-6.253-54.548-10.511c4.923-17.162,11.043-34.856,17.961-52.552
		c5.455,10.644,11.176,21.287,17.429,31.931S506.764,485.205,513.283,495.316z M611.601,218.455
		c12.373,12.772,24.746,27.008,36.986,42.573c-11.974-0.532-24.214-0.931-36.587-0.931c-12.506,0-24.879,0.266-36.985,0.931
		C586.988,245.463,599.361,231.228,611.601,218.455z M513.149,296.817c-6.519,10.244-13.038,20.755-19.157,31.531
		c-6.12,10.643-11.841,21.286-17.296,31.93c-7.185-17.828-13.305-35.655-18.36-52.951
		C475.765,303.203,494.125,299.611,513.149,296.817L513.149,296.817z M392.746,463.386c-47.097-20.089-77.563-46.432-77.563-67.319
		s30.467-47.362,77.563-67.319c11.442-4.922,23.948-9.313,36.854-13.438c7.583,26.077,17.562,53.218,29.935,81.023
		c-12.24,27.673-22.085,54.68-29.536,80.623C416.827,472.832,404.321,468.309,392.746,463.386L392.746,463.386z M464.323,653.503
		c-18.094-10.377-25.943-49.891-19.823-100.713c1.464-12.506,3.858-25.677,6.785-39.114c26.076,6.386,54.547,11.309,84.481,14.502
		c17.961,24.612,36.587,46.964,55.346,66.521c-43.372,40.313-84.082,62.397-111.755,62.397
		C473.37,656.962,468.314,655.765,464.323,653.503L464.323,653.503z M779.899,552.125c6.253,50.822-1.464,90.336-19.424,100.846
		c-3.991,2.396-9.181,3.46-15.3,3.46c-27.54,0-68.384-21.952-111.756-61.998c18.626-19.558,37.252-41.775,54.946-66.388
		c30.067-3.193,58.539-8.116,84.615-14.635C776.041,526.847,778.436,539.752,779.899,552.125z M831.121,463.386
		c-11.442,4.923-23.948,9.313-36.854,13.438c-7.583-26.076-17.562-53.217-29.935-81.022c12.24-27.673,22.085-54.681,29.536-80.624
		c13.171,4.125,25.677,8.648,37.385,13.57c47.097,20.09,77.563,46.432,77.563,67.319
		C908.684,416.954,878.218,443.43,831.121,463.386L831.121,463.386z"/>
	<circle fill="#61DAFB" cx="611.867" cy="396.067" r="60.8"/>
	<path fill="#61DAFB" d="M744.377,105.502"/>
</g>
<g>
	<path fill="none" stroke="#204477" stroke-width="12" stroke-miterlimit="10" d="M324.155,299.172h-10.956
		c-1.777,0-2.665,1.48-3.257,3.257l-15.398,58.927c-0.296,1.184-1.185,1.776-2.369,1.776c-1.184,0-1.48-0.593-1.48-2.073v-74.916
		c0-0.592,0.592-1.185,1.48-1.185h86.761c0.888,0,1.48,0.593,1.48,1.185v74.916c0,1.48-0.296,2.073-1.48,2.073
		c-1.185,0-2.073-0.593-2.369-1.776l-15.398-58.927c-0.592-1.776-1.48-3.257-3.257-3.257h-10.957v186.55
		c0,3.555,0.296,6.219,2.369,8.291l8.883,8.588c0.888,0.889,2.073,1.777,2.073,2.666c0,0.887-0.296,1.775-1.777,1.775h-45.897
		c-1.481,0-1.777-0.889-1.777-1.775c0-0.889,1.185-1.777,2.073-2.666l8.883-8.588c2.073-2.072,2.369-4.736,2.369-8.291V299.172z"/>
	<path fill="none" stroke="#204477" stroke-width="12" stroke-miterlimit="10" d="M459.477,417.616
		c0,73.141-15.99,89.426-35.237,89.426c-18.951,0-34.941-16.285-34.941-89.426c0-58.334,15.99-75.212,34.941-75.212
		C443.486,342.404,459.477,359.282,459.477,417.616z M436.38,417.616c0-51.523-4.146-62.479-12.141-62.479
		c-7.699,0-11.845,10.956-11.845,62.479c0,66.625,4.146,76.693,11.845,76.693C432.234,494.31,436.38,484.241,436.38,417.616z"/>
	<path fill="none" stroke="#204477" stroke-width="12" stroke-miterlimit="10" d="M521.95,299.172c0-1.185-0.296-1.777-1.185-2.369
		l-8.587-8.587c-0.889-0.593-1.481-1.481-1.481-2.073c0-0.889,0.889-1.185,2.073-1.185h28.131c1.185,0,1.777,0.593,1.777,1.776
		v204.022c0,1.184,0,2.072,0.296,2.664l9.18,10.365c0.888,0.592,1.48,1.48,1.48,2.072c0,0.889-0.889,1.184-2.073,1.184h-27.539
		c-1.185,0-2.073-0.592-2.073-1.184V495.79h-0.592c-5.034,5.922-10.364,11.252-19.839,11.252c-13.029,0-26.65-7.402-26.65-90.906
		c0-66.033,14.806-73.731,26.946-73.731c8.587,0,14.51,4.737,19.543,10.363h0.592V299.172z M521.95,377.345
		c0-14.509-8.883-22.208-13.029-22.208c-7.403,0-10.957,6.219-10.957,60.999c0,71.363,2.961,78.174,10.66,78.174
		c7.107,0,13.325-9.18,13.325-23.689V377.345z"/>
	<path fill="none" stroke="#204477" stroke-width="12" stroke-miterlimit="10" d="M632.989,417.616
		c0,73.141-15.99,89.426-35.237,89.426c-18.951,0-34.941-16.285-34.941-89.426c0-58.334,15.99-75.212,34.941-75.212
		C616.999,342.404,632.989,359.282,632.989,417.616z M609.893,417.616c0-51.523-4.146-62.479-12.141-62.479
		c-7.699,0-11.845,10.956-11.845,62.479c0,66.625,4.146,76.693,11.845,76.693C605.747,494.31,609.893,484.241,609.893,417.616z"/>
	<path fill="none" stroke="#204477" stroke-width="12" stroke-miterlimit="10" d="M693.389,306.278c0-3.554-0.593-6.219-2.665-8.291
		l-8.884-8.588c-0.592-0.888-2.072-1.776-2.072-2.665c0-0.888,0.592-1.776,1.776-1.776h46.489c1.185,0,1.777,0.889,1.777,1.776
		c0,0.889-1.48,1.777-2.073,2.665l-8.884,8.588c-2.072,2.072-2.664,4.737-2.664,8.291v185.959h11.844
		c3.554,0,6.515-0.889,7.699-4.441l18.359-57.447c0.592-1.184,0.592-2.072,1.776-2.072c0.888,0,1.48,0.889,1.48,2.072v72.549
		c0,2.664-0.889,4.145-3.257,4.145h-72.548c-1.185,0-1.776-0.889-1.776-1.775c0-0.889,1.48-1.48,2.072-2.666l8.884-8.588
		c2.072-2.072,2.665-4.736,2.665-8.291V306.278z"/>
	<path fill="none" stroke="#204477" stroke-width="12" stroke-miterlimit="10" d="M776.886,356.617c0-1.185-0.296-1.776-0.888-2.369
		l-8.884-8.291c-0.592-0.888-1.185-1.776-1.185-2.369c0-0.888,0.889-1.184,1.776-1.184h28.427c0.889,0,1.48,0.592,1.48,1.776
		v146.576c0,1.184,0,2.072,0.593,2.664l9.18,10.365c0.592,0.592,1.185,1.48,1.185,2.072c0,0.889-0.593,1.184-1.777,1.184h-39.087
		c-0.888,0-1.776-0.295-1.776-1.184c0-0.592,0.593-1.48,1.185-2.072l9.18-10.365c0.592-0.592,0.592-1.48,0.592-2.664V356.617z
		 M797.613,300.652c0,7.698-4.737,15.693-10.659,15.693c-6.219,0-10.956-7.995-10.956-15.693c0-7.995,4.737-15.694,10.956-15.694
		C792.876,284.958,797.613,292.657,797.613,300.652z"/>
	<path fill="none" stroke="#204477" stroke-width="12" stroke-miterlimit="10" d="M869.566,401.034c0,1.185-0.592,2.369-1.776,2.369
		c-0.889,0-1.48-1.185-1.777-2.665c-1.776-9.18-3.849-18.063-8.883-30.796c-3.85-9.476-7.995-14.806-13.621-14.806
		c-6.219,0-7.403,7.106-7.403,15.99c0,12.437,6.219,29.315,18.063,48.267c11.252,18.063,19.247,38.791,19.247,58.037
		c0,18.359-13.029,29.611-25.466,29.611c-8.291,0-13.325-3.85-17.767-9.475l-7.699,7.994c-0.888,0.592-1.776,1.48-2.961,1.48
		c-0.592,0-0.889-0.889-0.889-2.072v-56.854c0-0.889,0.297-2.072,1.185-2.072c1.48,0,1.48,1.184,1.777,2.664
		c4.737,23.986,11.548,45.602,22.504,45.602c6.515,0,9.476-5.033,9.476-12.732c0-18.359-9.476-37.902-18.951-53.301
		c-10.66-17.767-16.878-36.126-16.878-54.188c0-19.247,11.844-31.684,22.504-31.684c7.107,0,12.437,3.553,17.471,9.476l8.588-7.699
		c0.592-0.593,1.184-1.776,2.072-1.776c0.593,0,1.185,1.48,1.185,2.961V401.034z"/>
	<path fill="none" stroke="#204477" stroke-width="12" stroke-miterlimit="10" d="M914.275,483.649c0,6.219,2.961,10.66,7.106,10.66
		c3.553,0,7.402-3.258,9.18-6.219c0.592-0.592,1.184-1.184,1.776-1.184c0.592,0,1.185,0.889,0.889,1.775
		c-2.073,8.293-7.995,18.359-20.433,18.359c-12.437,0-19.247-5.625-19.247-29.906V357.21c0-1.185,0-2.962-0.888-3.85l-8.588-8.291
		c-0.592-0.593-1.48-1.185-1.48-1.777c0-0.888,1.185-1.776,4.146-2.072c13.029-2.369,14.51-24.874,14.51-36.718
		c0-1.48,0.889-2.665,2.369-2.665h8.883c1.185,0,1.777,0.592,1.777,2.072v34.053c0,1.48,0.296,2.665,2.368,2.665h6.811
		c1.48,0,1.777,2.073,0,3.554l-6.811,7.699c-0.888,1.48-2.368,3.257-2.368,5.33V483.649z"/>
</g>
<g>
	<path fill="#FFFFFF" d="M324.155,299.172h-10.956c-1.777,0-2.665,1.48-3.257,3.257l-15.398,58.927
		c-0.296,1.184-1.185,1.776-2.369,1.776c-1.184,0-1.48-0.593-1.48-2.073v-74.916c0-0.592,0.592-1.185,1.48-1.185h86.761
		c0.888,0,1.48,0.593,1.48,1.185v74.916c0,1.48-0.296,2.073-1.48,2.073c-1.185,0-2.073-0.593-2.369-1.776l-15.398-58.927
		c-0.592-1.776-1.48-3.257-3.257-3.257h-10.957v186.55c0,3.555,0.296,6.219,2.369,8.291l8.883,8.588
		c0.888,0.889,2.073,1.777,2.073,2.666c0,0.887-0.296,1.775-1.777,1.775h-45.897c-1.481,0-1.777-0.889-1.777-1.775
		c0-0.889,1.185-1.777,2.073-2.666l8.883-8.588c2.073-2.072,2.369-4.736,2.369-8.291V299.172z"/>
	<path fill="#FFFFFF" d="M459.477,417.616c0,73.141-15.99,89.426-35.237,89.426c-18.951,0-34.941-16.285-34.941-89.426
		c0-58.334,15.99-75.212,34.941-75.212C443.486,342.404,459.477,359.282,459.477,417.616z M436.38,417.616
		c0-51.523-4.146-62.479-12.141-62.479c-7.699,0-11.845,10.956-11.845,62.479c0,66.625,4.146,76.693,11.845,76.693
		C432.234,494.31,436.38,484.241,436.38,417.616z"/>
	<path fill="#FFFFFF" d="M521.95,299.172c0-1.185-0.296-1.777-1.185-2.369l-8.587-8.587c-0.889-0.593-1.481-1.481-1.481-2.073
		c0-0.889,0.889-1.185,2.073-1.185h28.131c1.185,0,1.777,0.593,1.777,1.776v204.022c0,1.184,0,2.072,0.296,2.664l9.18,10.365
		c0.888,0.592,1.48,1.48,1.48,2.072c0,0.889-0.889,1.184-2.073,1.184h-27.539c-1.185,0-2.073-0.592-2.073-1.184V495.79h-0.592
		c-5.034,5.922-10.364,11.252-19.839,11.252c-13.029,0-26.65-7.402-26.65-90.906c0-66.033,14.806-73.731,26.946-73.731
		c8.587,0,14.51,4.737,19.543,10.363h0.592V299.172z M521.95,377.345c0-14.509-8.883-22.208-13.029-22.208
		c-7.403,0-10.957,6.219-10.957,60.999c0,71.363,2.961,78.174,10.66,78.174c7.107,0,13.325-9.18,13.325-23.689V377.345z"/>
	<path fill="#FFFFFF" d="M632.989,417.616c0,73.141-15.99,89.426-35.237,89.426c-18.951,0-34.941-16.285-34.941-89.426
		c0-58.334,15.99-75.212,34.941-75.212C616.999,342.404,632.989,359.282,632.989,417.616z M609.893,417.616
		c0-51.523-4.146-62.479-12.141-62.479c-7.699,0-11.845,10.956-11.845,62.479c0,66.625,4.146,76.693,11.845,76.693
		C605.747,494.31,609.893,484.241,609.893,417.616z"/>
	<path fill="#FFFFFF" d="M693.389,306.278c0-3.554-0.593-6.219-2.665-8.291l-8.884-8.588c-0.592-0.888-2.072-1.776-2.072-2.665
		c0-0.888,0.592-1.776,1.776-1.776h46.489c1.185,0,1.777,0.889,1.777,1.776c0,0.889-1.48,1.777-2.073,2.665l-8.884,8.588
		c-2.072,2.072-2.664,4.737-2.664,8.291v185.959h11.844c3.554,0,6.515-0.889,7.699-4.441l18.359-57.447
		c0.592-1.184,0.592-2.072,1.776-2.072c0.888,0,1.48,0.889,1.48,2.072v72.549c0,2.664-0.889,4.145-3.257,4.145h-72.548
		c-1.185,0-1.776-0.889-1.776-1.775c0-0.889,1.48-1.48,2.072-2.666l8.884-8.588c2.072-2.072,2.665-4.736,2.665-8.291V306.278z"/>
	<path fill="#FFFFFF" d="M776.886,356.617c0-1.185-0.296-1.776-0.888-2.369l-8.884-8.291c-0.592-0.888-1.185-1.776-1.185-2.369
		c0-0.888,0.889-1.184,1.776-1.184h28.427c0.889,0,1.48,0.592,1.48,1.776v146.576c0,1.184,0,2.072,0.593,2.664l9.18,10.365
		c0.592,0.592,1.185,1.48,1.185,2.072c0,0.889-0.593,1.184-1.777,1.184h-39.087c-0.888,0-1.776-0.295-1.776-1.184
		c0-0.592,0.593-1.48,1.185-2.072l9.18-10.365c0.592-0.592,0.592-1.48,0.592-2.664V356.617z M797.613,300.652
		c0,7.698-4.737,15.693-10.659,15.693c-6.219,0-10.956-7.995-10.956-15.693c0-7.995,4.737-15.694,10.956-15.694
		C792.876,284.958,797.613,292.657,797.613,300.652z"/>
	<path fill="#FFFFFF" d="M869.566,401.034c0,1.185-0.592,2.369-1.776,2.369c-0.889,0-1.48-1.185-1.777-2.665
		c-1.776-9.18-3.849-18.063-8.883-30.796c-3.85-9.476-7.995-14.806-13.621-14.806c-6.219,0-7.403,7.106-7.403,15.99
		c0,12.437,6.219,29.315,18.063,48.267c11.252,18.063,19.247,38.791,19.247,58.037c0,18.359-13.029,29.611-25.466,29.611
		c-8.291,0-13.325-3.85-17.767-9.475l-7.699,7.994c-0.888,0.592-1.776,1.48-2.961,1.48c-0.592,0-0.889-0.889-0.889-2.072v-56.854
		c0-0.889,0.297-2.072,1.185-2.072c1.48,0,1.48,1.184,1.777,2.664c4.737,23.986,11.548,45.602,22.504,45.602
		c6.515,0,9.476-5.033,9.476-12.732c0-18.359-9.476-37.902-18.951-53.301c-10.66-17.767-16.878-36.126-16.878-54.188
		c0-19.247,11.844-31.684,22.504-31.684c7.107,0,12.437,3.553,17.471,9.476l8.588-7.699c0.592-0.593,1.184-1.776,2.072-1.776
		c0.593,0,1.185,1.48,1.185,2.961V401.034z"/>
	<path fill="#FFFFFF" d="M914.275,483.649c0,6.219,2.961,10.66,7.106,10.66c3.553,0,7.402-3.258,9.18-6.219
		c0.592-0.592,1.184-1.184,1.776-1.184c0.592,0,1.185,0.889,0.889,1.775c-2.073,8.293-7.995,18.359-20.433,18.359
		c-12.437,0-19.247-5.625-19.247-29.906V357.21c0-1.185,0-2.962-0.888-3.85l-8.588-8.291c-0.592-0.593-1.48-1.185-1.48-1.777
		c0-0.888,1.185-1.776,4.146-2.072c13.029-2.369,14.51-24.874,14.51-36.718c0-1.48,0.889-2.665,2.369-2.665h8.883
		c1.185,0,1.777,0.592,1.777,2.072v34.053c0,1.48,0.296,2.665,2.368,2.665h6.811c1.48,0,1.777,2.073,0,3.554l-6.811,7.699
		c-0.888,1.48-2.368,3.257-2.368,5.33V483.649z"/>
</g>
</svg>
